<svg width="77" height="77" viewBox="0 0 77 77" fill="none" xmlns="http://www.w3.org/2000/svg">
<circle cx="38.5" cy="38.5" r="38.5" fill="#EDF8FF"/>
<path d="M38.6667 18C31.131 18 25 24.131 25 31.6667C25 33.9289 25.5656 36.1719 26.6408 38.1614L37.9193 58.5596C38.0695 58.8315 38.3556 59 38.6667 59C38.9778 59 39.2639 58.8315 39.4141 58.5596L50.6968 38.1546C51.7678 36.1719 52.3334 33.9288 52.3334 31.6666C52.3334 24.131 46.2024 18 38.6667 18ZM38.6667 38.5C34.8989 38.5 31.8334 35.4345 31.8334 31.6667C31.8334 27.8989 34.8989 24.8334 38.6667 24.8334C42.4345 24.8334 45.5 27.8989 45.5 31.6667C45.5 35.4345 42.4345 38.5 38.6667 38.5Z" fill="#62CAFE"/>
</svg>
