<svg width="1544" height="1068" viewBox="0 0 1544 1068" fill="none" xmlns="http://www.w3.org/2000/svg">
<path d="M1169 25.4868L1135.48 5.00004L1101.97 25.4868L1068.45 5.00004L1034.93 25.4868L1001.42 5.00003L967.902 25.4868L934.386 5.00002L900.869 25.4868L867.353 5.00002L833.836 25.4868L800.32 5.00001L766.804 25.4868L733.287 5.00001L699.771 25.4868L666.255 5L632.516 25.4868L599 4.99999" stroke="#F5F5FF" stroke-width="8" stroke-miterlimit="10"/>
<path d="M1169 59.0337L1135.48 38.5469L1101.97 59.0337L1068.45 38.5469L1034.93 59.0337L1001.42 38.5469L967.902 59.0337L934.386 38.5469L900.869 59.0337L867.353 38.5469L833.836 59.0337L800.32 38.5469L766.804 59.0337L733.287 38.5469L699.771 59.0337L666.255 38.5469L632.516 59.0336L599 38.5469" stroke="#F5F5FF" stroke-width="8" stroke-miterlimit="10"/>
<path d="M1169 92.8369L1135.48 72.3501L1101.97 92.8369L1068.45 72.3501L1034.93 92.8369L1001.42 72.3501L967.902 92.8369L934.386 72.3501L900.869 92.8369L867.353 72.3501L833.836 92.8369L800.32 72.3501L766.804 92.8369L733.287 72.3501L699.771 92.8369L666.255 72.3501L632.516 92.8369L599 72.3501" stroke="#F5F5FF" stroke-width="8" stroke-miterlimit="10"/>
<path d="M1169 126.64L1135.48 106.153L1101.97 126.64L1068.45 106.153L1034.93 126.64L1001.42 106.153L967.902 126.64L934.386 106.153L900.869 126.64L867.353 106.153L833.836 126.64L800.32 106.153L766.804 126.64L733.287 106.153L699.771 126.64L666.255 106.153L632.516 126.64L599 106.153" stroke="#F5F5FF" stroke-width="8" stroke-miterlimit="10"/>
<path d="M1169 160.443L1135.48 139.957L1101.97 160.443L1068.45 139.957L1034.93 160.443L1001.42 139.957L967.902 160.443L934.386 139.957L900.869 160.443L867.353 139.957L833.836 160.443L800.32 139.957L766.804 160.443L733.287 139.957L699.771 160.443L666.255 139.957L632.516 160.443L599 139.957" stroke="#F5F5FF" stroke-width="8" stroke-miterlimit="10"/>
<path d="M1169 194.247L1135.48 173.76L1101.97 194.247L1068.45 173.76L1034.93 194.247L1001.42 173.76L967.902 194.247L934.386 173.76L900.869 194.247L867.353 173.76L833.836 194.247L800.32 173.76L766.804 194.247L733.287 173.76L699.771 194.247L666.255 173.76L632.516 194.247L599 173.76" stroke="#F5F5FF" stroke-width="8" stroke-miterlimit="10"/>
<rect y="100" width="1544" height="968" fill="#F1FAFF"/>
</svg>
