<svg width="77" height="77" viewBox="0 0 77 77" fill="none" xmlns="http://www.w3.org/2000/svg">
<circle cx="38.5" cy="38.5" r="38.5" fill="#FFF8F1"/>
<path d="M38.4999 38.1615L52.2169 30.114C51.822 29.5297 51.291 29.0502 50.6696 28.7168C50.0482 28.3834 49.3551 28.206 48.6499 28.2H28.3499C27.6411 28.1997 26.943 28.3726 26.3163 28.7037C25.6895 29.0347 25.1532 29.5139 24.7539 30.0995L38.4999 38.1615Z" fill="#FC9A37"/>
<path d="M39.95 40.6555C39.5094 40.9111 39.0093 41.0461 38.5 41.047C37.992 41.0505 37.492 40.9205 37.05 40.67L24 33.0285V47.05C24 48.2037 24.4583 49.3102 25.2741 50.1259C26.0899 50.9417 27.1963 51.4 28.35 51.4H48.65C49.8037 51.4 50.9101 50.9417 51.7259 50.1259C52.5417 49.3102 53 48.2037 53 47.05V33.0285L39.95 40.6555Z" fill="#FC9A37"/>
</svg>
