<svg width="1280" height="152" viewBox="0 0 1280 152" fill="none" xmlns="http://www.w3.org/2000/svg">
<circle cx="62.5" cy="62.5" r="62.5" fill="#FFF4A7"/>
<path d="M1233.23 139.035L1209.69 126.564L1186.16 139.035L1186 138.879L1186 151.194L1186.16 151.35L1209.69 138.879L1233.23 151.35L1256.77 138.879L1280 151.194L1280 138.879L1256.77 126.564L1233.23 139.035Z" fill="#0C0C24"/>
<path d="M1209.69 105.519L1233.23 117.99L1256.77 105.519L1280 117.834L1280 105.519L1256.77 93.2039L1233.23 105.675L1209.69 93.2039L1186.16 105.675L1186 105.675L1186 117.99L1186.16 117.99L1209.69 105.519Z" fill="#0C0C24"/>
<path d="M1209.69 72.3151L1233.23 84.7861L1256.77 72.3151L1280 84.6302L1280 72.3151L1256.77 60L1233.23 72.471L1209.69 60L1186.16 72.471L1186 72.3151L1186 84.6302L1186.16 84.7861L1209.69 72.3151Z" fill="#0C0C24"/>
</svg>
