<svg width="129" height="576" viewBox="0 0 129 576" fill="none" xmlns="http://www.w3.org/2000/svg">
<path d="M22.2466 3L1.75981 36.5164L22.2466 70.0327L1.75981 103.549L22.2466 137.065L1.7598 170.582L22.2466 204.098L1.7598 237.614L22.2466 271.131L1.7598 304.647L22.2466 338.164L1.75979 371.68L22.2466 405.196L1.75979 438.713L22.2466 472.229L1.75979 505.745L22.2466 539.484L1.75978 573" stroke="#DEDEFD" stroke-width="8" stroke-miterlimit="10"/>
<path d="M55.7936 3L35.3068 36.5164L55.7936 70.0327L35.3068 103.549L55.7936 137.065L35.3068 170.582L55.7936 204.098L35.3068 237.614L55.7936 271.131L35.3068 304.647L55.7936 338.164L35.3068 371.68L55.7936 405.196L35.3068 438.713L55.7936 472.229L35.3068 505.745L55.7936 539.484L35.3068 573" stroke="#DEDEFD" stroke-width="8" stroke-miterlimit="10"/>
<path d="M89.5968 3L69.11 36.5164L89.5968 70.0327L69.11 103.549L89.5968 137.065L69.11 170.582L89.5968 204.098L69.11 237.614L89.5968 271.131L69.11 304.647L89.5968 338.164L69.11 371.68L89.5968 405.196L69.11 438.713L89.5968 472.229L69.11 505.745L89.5968 539.484L69.11 573" stroke="#DEDEFD" stroke-width="8" stroke-miterlimit="10"/>
<path d="M123.4 3L102.913 36.5164L123.4 70.0327L102.913 103.549L123.4 137.065L102.913 170.582L123.4 204.098L102.913 237.614L123.4 271.131L102.913 304.647L123.4 338.164L102.913 371.68L123.4 405.196L102.913 438.713L123.4 472.229L102.913 505.745L123.4 539.484L102.913 573" stroke="#DEDEFD" stroke-width="8" stroke-miterlimit="10"/>
</svg>
