<svg width="190" height="35" viewBox="0 0 190 35" fill="none" xmlns="http://www.w3.org/2000/svg">
<g clip-path="url(#clip0_113_47)">
<path d="M10.6975 19.7172C9.60323 15.5017 -6.9875 5.39307 3.41297 7.7066C31.8996 14.0376 32.5249 14.8452 9.47296 33.5827C1.89667 39.7417 11.8334 24.0889 10.6975 19.7172Z" fill="url(#paint0_linear_113_47)"/>
<path d="M10.6975 19.7172C10.5984 19.3472 10.3848 18.9304 10.0774 18.4822C14.5585 24.5058 15.3297 28.7368 12.4013 31.191C11.4686 31.957 10.4942 32.749 9.47295 33.5827C1.89666 39.7417 11.8334 24.0837 10.6975 19.7172ZM9.46774 17.6798L9.45731 17.6694L9.46774 17.6798Z" fill="url(#paint1_linear_113_47)"/>
<path d="M32.0872 19.7172C33.1815 15.5017 49.7722 5.39307 39.3717 7.7066C30.7585 9.61891 24.6985 11.031 21.0615 12.5838L21.4835 12.7505L24.1566 15.7727L21.6867 21.4106L21.3949 22.7758L21.0771 23.0833C23.8231 25.8032 27.9187 29.2058 33.3065 33.5827C40.8828 39.7417 30.9513 24.0889 32.0872 19.7172Z" fill="url(#paint2_linear_113_47)"/>
<path d="M32.0872 19.7172C32.2383 19.144 32.676 18.4562 33.2961 17.7058L33.2805 17.6694C28.471 23.8544 27.3664 28.247 29.9769 30.8575C31.0243 31.7225 32.1393 32.6292 33.3117 33.5827C40.8828 39.7417 30.9513 24.0837 32.0872 19.7172Z" fill="url(#paint3_linear_113_47)"/>
<path d="M21.3898 12.443C15.3714 14.9025 15.5278 17.6797 21.3898 23.3854C27.2518 17.6797 27.4081 14.9025 21.3898 12.443Z" fill="url(#paint4_linear_113_47)"/>
<path d="M28.0854 0C30.3 0 32.0977 1.79768 32.0977 4.01221C32.0977 6.22674 30.3 8.02442 28.0854 8.02442C25.8709 8.02442 24.0732 6.22674 24.0732 4.01221C24.0784 1.79768 25.8709 0 28.0854 0Z" fill="url(#paint5_linear_113_47)"/>
<path d="M14.6941 0C16.9086 0 18.7063 1.79768 18.7063 4.01221C18.7063 6.22674 16.9086 8.02442 14.6941 8.02442C12.4795 8.02442 10.6818 6.22674 10.6818 4.01221C10.6871 1.79768 12.4795 0 14.6941 0Z" fill="url(#paint6_linear_113_47)"/>
<path d="M54.3003 30.6803L50.8613 9.57716H53.3103L55.5769 24.7402L58.4167 9.65532H60.501L63.3668 24.8183L65.5813 9.57716H67.9782L64.5913 30.6803H62.455L59.5109 15.0484L56.5409 30.6803H54.3003Z" fill="black"/>
<path d="M74.205 30.8887C73.0951 30.8887 72.2145 30.6647 71.5736 30.2114C70.9327 29.758 70.4742 29.1171 70.2032 28.2834C69.9322 27.4497 69.7968 26.4701 69.7968 25.3394V20.9624C69.7968 19.8317 69.9322 18.8521 70.2032 18.0184C70.4742 17.1847 70.9275 16.5438 71.5736 16.0905C72.2145 15.6371 73.0951 15.4131 74.205 15.4131C75.3149 15.4131 76.1902 15.6371 76.8259 16.0905C77.4616 16.5438 77.9098 17.1847 78.1807 18.0184C78.4517 18.8521 78.5871 19.8317 78.5871 20.9624V25.3394C78.5871 26.4701 78.4517 27.4497 78.1807 28.2834C77.9098 29.1171 77.4616 29.758 76.8259 30.2114C76.1902 30.6647 75.3201 30.8887 74.205 30.8887ZM74.205 28.8305C74.7417 28.8305 75.1221 28.6742 75.3409 28.3616C75.5598 28.0489 75.69 27.6373 75.7317 27.1214C75.7734 26.6108 75.7994 26.0741 75.7994 25.5166V20.8009C75.7994 20.2277 75.7786 19.691 75.7317 19.1856C75.69 18.6802 75.5598 18.2685 75.3409 17.9455C75.1221 17.6224 74.7469 17.4609 74.205 17.4609C73.6683 17.4609 73.2827 17.6224 73.0586 17.9455C72.8346 18.2685 72.6991 18.6802 72.6522 19.1856C72.6105 19.691 72.5845 20.2277 72.5845 20.8009V25.5166C72.5845 26.0741 72.6053 26.6056 72.6522 27.1214C72.6939 27.6321 72.8294 28.0489 73.0586 28.3616C73.2879 28.6742 73.6683 28.8305 74.205 28.8305Z" fill="black"/>
<path d="M81.1351 30.6803V15.6215H83.7144V17.0544C84.2199 16.4813 84.7722 16.054 85.3818 15.7778C85.9915 15.5017 86.6168 15.361 87.2577 15.361C87.8152 15.361 88.3154 15.5017 88.7583 15.7778C89.2012 16.054 89.5191 16.549 89.7119 17.2629C90.2486 16.6011 90.8374 16.1217 91.4731 15.8143C92.1088 15.5121 92.7705 15.3558 93.4688 15.3558C93.9534 15.3558 94.3963 15.4756 94.7975 15.7101C95.1987 15.9446 95.5166 16.3197 95.7615 16.8304C96.0064 17.341 96.1262 18.0184 96.1262 18.8521V30.6803H93.573V19.0345C93.573 18.305 93.4531 17.8152 93.2187 17.5599C92.9842 17.3098 92.6663 17.1795 92.2651 17.1795C91.8847 17.1795 91.4835 17.2889 91.0667 17.5078C90.6498 17.7266 90.2694 18.0236 89.9203 18.4092C89.9203 18.477 89.9203 18.5499 89.9203 18.6176C89.9203 18.6854 89.9203 18.7635 89.9203 18.8521V30.6803H87.3671V19.0345C87.3671 18.305 87.2473 17.8152 87.0128 17.5599C86.7783 17.3098 86.4604 17.1795 86.0592 17.1795C85.6788 17.1795 85.2828 17.2889 84.8712 17.5078C84.4648 17.7266 84.074 18.0236 83.7092 18.4092V30.6803H81.1351Z" fill="black"/>
<path d="M103.02 30.8887C101.837 30.8887 100.925 30.6595 100.284 30.1957C99.6435 29.7372 99.1954 29.0598 98.9401 28.1636C98.69 27.2673 98.5597 26.1679 98.5597 24.8652V21.4262C98.5597 20.0871 98.69 18.9772 98.9505 18.0914C99.211 17.2056 99.6696 16.5386 100.321 16.0853C100.972 15.6319 101.874 15.4079 103.02 15.4079C104.286 15.4079 105.224 15.6684 105.823 16.1895C106.423 16.7105 106.819 17.4609 107.011 18.4457C107.204 19.4253 107.298 20.6029 107.298 21.9785V23.203H101.358V26.2252C101.358 26.8349 101.415 27.3299 101.53 27.7102C101.644 28.0906 101.827 28.3772 102.077 28.5596C102.327 28.742 102.655 28.8358 103.056 28.8358C103.473 28.8358 103.791 28.7367 104.01 28.5335C104.229 28.3355 104.375 28.0489 104.453 27.6738C104.531 27.2986 104.573 26.8609 104.573 26.3555V25.4436H107.282V26.0168C107.282 27.5279 106.959 28.7159 106.318 29.5861C105.662 30.4563 104.568 30.8887 103.02 30.8887ZM101.353 21.6919H104.557V20.3372C104.557 19.7119 104.521 19.1856 104.453 18.7583C104.385 18.3311 104.239 18.0132 104.02 17.7944C103.802 17.5755 103.458 17.4661 102.989 17.4661C102.535 17.4661 102.191 17.5703 101.957 17.7787C101.723 17.9872 101.561 18.3415 101.472 18.8365C101.384 19.3315 101.342 20.0141 101.342 20.8843V21.6919H101.353Z" fill="black"/>
<path d="M109.82 30.6803V15.6215H112.608V17.1065C113.113 16.6376 113.665 16.2364 114.275 15.9081C114.885 15.5798 115.552 15.4131 116.281 15.4131C116.891 15.4131 117.354 15.5694 117.678 15.882C118.001 16.1947 118.225 16.5855 118.355 17.0544C118.485 17.5234 118.553 18.0028 118.553 18.4874V30.6803H115.765V19.295C115.765 18.7583 115.687 18.3415 115.531 18.0445C115.374 17.7475 115.051 17.6016 114.567 17.6016C114.254 17.6016 113.926 17.6954 113.587 17.8777C113.248 18.0601 112.92 18.2842 112.608 18.5447V30.6855H109.82V30.6803Z" fill="black"/>
<path d="M125.817 30.6803V9.57716H128.708V30.6803H125.817Z" fill="black"/>
<path d="M131.887 30.6803V15.6215H134.675V17.1065C135.18 16.6376 135.732 16.2364 136.342 15.9081C136.952 15.5798 137.619 15.4131 138.348 15.4131C138.958 15.4131 139.422 15.5694 139.745 15.882C140.068 16.1947 140.292 16.5855 140.422 17.0544C140.552 17.5234 140.62 18.0028 140.62 18.4874V30.6803H137.832V19.295C137.832 18.7583 137.754 18.3415 137.598 18.0445C137.442 17.7475 137.118 17.6016 136.634 17.6016C136.321 17.6016 135.993 17.6954 135.654 17.8777C135.316 18.0601 134.987 18.2842 134.675 18.5447V30.6855H131.887V30.6803Z" fill="black"/>
<path d="M148.207 30.6803V9.57716H151.151V28.57H156.544V30.6803H148.207Z" fill="black"/>
<path d="M162.479 30.8887C161.296 30.8887 160.384 30.6595 159.743 30.1957C159.102 29.7372 158.654 29.0598 158.399 28.1636C158.149 27.2673 158.018 26.1679 158.018 24.8652V21.4262C158.018 20.0871 158.149 18.9772 158.409 18.0914C158.67 17.2056 159.128 16.5386 159.78 16.0853C160.431 15.6319 161.332 15.4079 162.479 15.4079C163.745 15.4079 164.683 15.6684 165.282 16.1895C165.881 16.7105 166.277 17.4609 166.47 18.4457C166.663 19.4253 166.757 20.6029 166.757 21.9785V23.203H160.816V26.2252C160.816 26.8349 160.874 27.3299 160.988 27.7102C161.103 28.0906 161.285 28.3772 161.536 28.5596C161.786 28.742 162.114 28.8358 162.515 28.8358C162.932 28.8358 163.25 28.7367 163.469 28.5335C163.688 28.3355 163.833 28.0489 163.912 27.6738C163.99 27.2986 164.031 26.8609 164.031 26.3555V25.4436H166.741V26.0168C166.741 27.5279 166.418 28.7159 165.777 29.5861C165.12 30.4563 164.026 30.8887 162.479 30.8887ZM160.811 21.6919H164.016V20.3372C164.016 19.7119 163.979 19.1856 163.912 18.7583C163.844 18.3311 163.698 18.0132 163.479 17.7944C163.26 17.5755 162.916 17.4661 162.447 17.4661C161.994 17.4661 161.65 17.5703 161.416 17.7787C161.181 17.9872 161.02 18.3415 160.931 18.8365C160.843 19.3315 160.801 20.0141 160.801 20.8843V21.6919H160.811Z" fill="black"/>
<path d="M171.988 30.8888C171.399 30.8888 170.878 30.7168 170.425 30.3781C169.972 30.0394 169.617 29.607 169.357 29.0755C169.096 28.544 168.966 27.9864 168.966 27.3924C168.966 26.4545 169.122 25.6625 169.435 25.0216C169.748 24.3807 170.18 23.8336 170.727 23.3906C171.274 22.9477 171.91 22.5622 172.629 22.2287C173.348 21.9004 174.109 21.5773 174.911 21.2647V20.1965C174.911 19.5869 174.875 19.0866 174.807 18.6854C174.739 18.2842 174.593 17.9872 174.375 17.784C174.156 17.586 173.833 17.4818 173.395 17.4818C173.015 17.4818 172.702 17.5703 172.468 17.7423C172.233 17.9142 172.061 18.1644 171.957 18.4874C171.853 18.8105 171.801 19.1856 171.801 19.6233V20.3789L169.039 20.2747C169.075 18.6073 169.456 17.3775 170.185 16.5855C170.915 15.7935 172.045 15.3975 173.572 15.3975C175.068 15.3975 176.125 15.8039 176.751 16.622C177.376 17.4401 177.689 18.6177 177.689 20.1652V27.0433C177.689 27.5123 177.704 27.9656 177.73 28.3981C177.756 28.8306 177.793 29.237 177.834 29.6122C177.876 29.9873 177.918 30.3365 177.954 30.6699H175.401C175.349 30.3938 175.281 30.0394 175.203 29.6122C175.125 29.1849 175.068 28.7993 175.031 28.4502C174.859 29.039 174.521 29.5913 174.026 30.1072C173.541 30.6335 172.858 30.8888 171.988 30.8888ZM173.082 28.4919C173.359 28.4919 173.619 28.4137 173.864 28.2574C174.109 28.1011 174.323 27.9239 174.515 27.7207C174.708 27.5227 174.838 27.3612 174.906 27.2361V22.9634C174.474 23.2083 174.062 23.448 173.682 23.6929C173.301 23.9378 172.963 24.1931 172.676 24.464C172.389 24.735 172.165 25.0372 171.999 25.3759C171.832 25.7146 171.748 26.1002 171.748 26.5379C171.748 27.1475 171.863 27.6217 172.087 27.9708C172.316 28.3199 172.65 28.4919 173.082 28.4919Z" fill="black"/>
<path d="M183.868 30.8888C182.602 30.8888 181.654 30.425 181.029 29.4923C180.403 28.5648 180.091 26.986 180.091 24.761V21.8431C180.091 20.6967 180.184 19.6337 180.377 18.6489C180.57 17.6693 180.93 16.8825 181.461 16.2885C181.993 15.6997 182.769 15.4027 183.795 15.4027C184.301 15.4027 184.759 15.5173 185.176 15.7414C185.593 15.9654 185.968 16.2468 186.297 16.5751V9.57716H189.084V30.6803H186.297V29.7164C185.968 30.0655 185.604 30.3469 185.213 30.5657C184.822 30.7845 184.374 30.8888 183.868 30.8888ZM184.572 28.7003C184.832 28.7003 185.109 28.6534 185.406 28.5544C185.703 28.4606 185.994 28.3147 186.291 28.1219V18.2529C186.046 18.081 185.781 17.9246 185.484 17.7944C185.187 17.6641 184.869 17.5964 184.52 17.5964C183.879 17.5964 183.441 17.9038 183.217 18.5239C182.993 19.1387 182.878 19.8838 182.878 20.754V25.0007C182.878 25.6937 182.92 26.3242 182.998 26.8922C183.076 27.4549 183.238 27.8978 183.483 28.2209C183.723 28.544 184.087 28.7003 184.572 28.7003Z" fill="black"/>
</g>
<defs>
<linearGradient id="paint0_linear_113_47" x1="7.72742" y1="35.1658" x2="13.4848" y2="9.99024" gradientUnits="userSpaceOnUse">
<stop stop-color="#17A8F1"/>
<stop offset="1" stop-color="#00C7FB"/>
</linearGradient>
<linearGradient id="paint1_linear_113_47" x1="9.90686" y1="33.6573" x2="11.7279" y2="23.2099" gradientUnits="userSpaceOnUse">
<stop stop-color="#17A8F1"/>
<stop offset="1" stop-color="#00C7FB"/>
</linearGradient>
<linearGradient id="paint2_linear_113_47" x1="31.9206" y1="34.9984" x2="31.9215" y2="7.36589" gradientUnits="userSpaceOnUse">
<stop stop-color="#FC9A37"/>
<stop offset="1" stop-color="#FFCDAA"/>
</linearGradient>
<linearGradient id="paint3_linear_113_47" x1="32.7541" y1="34.9217" x2="31.5958" y2="22.3181" gradientUnits="userSpaceOnUse">
<stop stop-color="#FC9A37"/>
<stop offset="1" stop-color="#FFCDAA"/>
</linearGradient>
<linearGradient id="paint4_linear_113_47" x1="21.4654" y1="23.2531" x2="21.3434" y2="12.4487" gradientUnits="userSpaceOnUse">
<stop stop-color="#07BEF8"/>
<stop offset="1" stop-color="#FFCDAA"/>
</linearGradient>
<linearGradient id="paint5_linear_113_47" x1="28.086" y1="8.02048" x2="28.0865" y2="1.25065e-06" gradientUnits="userSpaceOnUse">
<stop stop-color="#FC9A37"/>
<stop offset="1" stop-color="#FFCDAA"/>
</linearGradient>
<linearGradient id="paint6_linear_113_47" x1="14.6799" y1="8.02048" x2="14.712" y2="3.77438e-05" gradientUnits="userSpaceOnUse">
<stop stop-color="#17A8F1"/>
<stop offset="1" stop-color="#00C7FB"/>
</linearGradient>
<clipPath id="clip0_113_47">
<rect width="189.079" height="35" fill="white"/>
</clipPath>
</defs>
</svg>
