<svg width="94" height="92" viewBox="0 0 94 92" fill="none" xmlns="http://www.w3.org/2000/svg">
<path d="M47.2338 79.0348L23.6949 66.5638L0.155885 79.0348L1.09025e-06 78.8789L1.36281e-08 91.194L0.155884 91.3498L23.6949 78.8789L47.2338 91.3498L70.7728 78.8789L94 91.194L94 78.8789L70.7728 66.5638L47.2338 79.0348Z" fill="#202020"/>
<path d="M23.6949 45.519L47.2338 57.99L70.7728 45.519L94 57.8341L94 45.519L70.7728 33.2039L47.2338 45.6749L23.6949 33.2039L0.155885 45.6749L1.07662e-06 45.6749L0 57.99L0.155884 57.99L23.6949 45.519Z" fill="#202020"/>
<path d="M23.6949 12.3151L47.2338 24.7861L70.7728 12.3152L94 24.6302L94 12.3152L70.7728 6.47266e-05L47.2338 12.471L23.6949 6.06109e-05L0.155885 12.471L1.09025e-06 12.3151L1.36279e-08 24.6302L0.155884 24.7861L23.6949 12.3151Z" fill="#202020"/>
</svg>
