<svg width="64" height="64" viewBox="0 0 64 64" fill="none" xmlns="http://www.w3.org/2000/svg">
<circle cx="32" cy="32" r="32" fill="#FC9A37"/>
<path d="M47 45.1875C47 46.1885 46.1885 47 45.1875 47H19.8125C18.8115 47 18 46.1885 18 45.1875C18 44.1865 18.8115 43.375 19.8125 43.375H45.1875C46.1885 43.375 47 44.1865 47 45.1875ZM31.2184 39.4457C31.5723 39.7997 32.0361 39.9766 32.5 39.9766C32.9638 39.9766 33.4278 39.7996 33.7816 39.4457L40.2034 33.024C40.9112 32.3161 40.9112 31.1685 40.2034 30.4607C39.4956 29.7529 38.348 29.7529 37.6401 30.4607L34.3125 33.7883V19.8125C34.3125 18.8115 33.501 18 32.5 18C31.499 18 30.6875 18.8115 30.6875 19.8125V33.7883L27.3599 30.4607C26.652 29.7529 25.5044 29.7529 24.7966 30.4607C24.0888 31.1685 24.0888 32.3161 24.7966 33.024L31.2184 39.4457Z" fill="white"/>
</svg>
