<svg width="95" height="93" viewBox="0 0 95 93" fill="none" xmlns="http://www.w3.org/2000/svg">
<path d="M47.7363 79.9035L23.9469 67.2998L0.157518 79.9035L-2.17863e-05 79.746L-2.28744e-05 92.1921L0.157516 92.3496L23.9469 79.746L47.7363 92.3496L71.5257 79.746L95 92.1921L95 79.746L71.5257 67.2999L47.7363 79.9035Z" fill="#202020"/>
<path d="M23.9469 46.0311L47.7363 58.6348L71.5257 46.0311L95 58.4772L95 46.0311L71.5257 33.585L47.7363 46.1887L23.9469 33.585L0.157518 46.1887L-2.18001e-05 46.1887L-2.28882e-05 58.6348L0.157516 58.6348L23.9469 46.0311Z" fill="#202020"/>
<path d="M23.9469 12.474L47.7363 25.0776L71.5257 12.474L95 24.9201L95 12.474L71.5257 0.0278796L47.7363 12.6315L23.9469 0.0278754L0.157518 12.6315L-2.17863e-05 12.474L-2.28744e-05 24.9201L0.157516 25.0776L23.9469 12.474Z" fill="#202020"/>
</svg>
