<svg width="552" height="287" viewBox="0 0 552 287" fill="none" xmlns="http://www.w3.org/2000/svg">
<path d="M1.59094 263.689L33.8377 283.4L66.0845 263.689L98.3313 283.4L130.578 263.689L162.825 283.4L195.072 263.689L227.319 283.4L259.565 263.689L291.812 283.4L324.059 263.689L356.306 283.4L388.553 263.689L420.799 283.4L453.046 263.689L485.293 283.4L517.753 263.689L550 283.4" stroke="#DEDEFD" stroke-width="6" stroke-miterlimit="10"/>
<path d="M1.59094 231.413L33.8377 251.124L66.0845 231.413L98.3313 251.124L130.578 231.413L162.825 251.124L195.072 231.413L227.319 251.124L259.565 231.413L291.812 251.124L324.059 231.413L356.306 251.124L388.553 231.413L420.799 251.124L453.046 231.413L485.293 251.124L517.753 231.413L550 251.124" stroke="#DEDEFD" stroke-width="6" stroke-miterlimit="10"/>
<path d="M1.59094 198.89L33.8377 218.601L66.0845 198.89L98.3313 218.601L130.578 198.89L162.825 218.601L195.072 198.89L227.319 218.601L259.565 198.89L291.812 218.601L324.059 198.89L356.306 218.601L388.553 198.89L420.799 218.601L453.046 198.89L485.293 218.601L517.753 198.89L550 218.601" stroke="#DEDEFD" stroke-width="6" stroke-miterlimit="10"/>
<path d="M1.59094 166.367L33.8377 186.078L66.0845 166.367L98.3313 186.078L130.578 166.367L162.825 186.078L195.072 166.367L227.319 186.078L259.565 166.367L291.812 186.078L324.059 166.367L356.306 186.078L388.553 166.367L420.799 186.078L453.046 166.367L485.293 186.078L517.753 166.367L550 186.078" stroke="#DEDEFD" stroke-width="6" stroke-miterlimit="10"/>
<path d="M1.59094 133.845L33.8377 153.555L66.0845 133.845L98.3313 153.555L130.578 133.845L162.825 153.555L195.072 133.845L227.319 153.555L259.565 133.845L291.812 153.555L324.059 133.845L356.306 153.555L388.553 133.845L420.799 153.555L453.046 133.845L485.293 153.555L517.753 133.845L550 153.555" stroke="#DEDEFD" stroke-width="6" stroke-miterlimit="10"/>
<path d="M1.59094 101.322L33.8377 121.033L66.0845 101.322L98.3313 121.033L130.578 101.322L162.825 121.033L195.072 101.322L227.319 121.033L259.565 101.322L291.812 121.033L324.059 101.322L356.306 121.033L388.553 101.322L420.799 121.033L453.046 101.322L485.293 121.033L517.753 101.322L550 121.033" stroke="#DEDEFD" stroke-width="6" stroke-miterlimit="10"/>
<path d="M1.59094 69.0456L33.8377 88.7563L66.0845 69.0456L98.3313 88.7563L130.578 69.0456L162.825 88.7563L195.072 69.0456L227.319 88.7563L259.565 69.0456L291.812 88.7563L324.059 69.0456L356.306 88.7563L388.553 69.0456L420.799 88.7563L453.046 69.0456L485.293 88.7563L517.753 69.0456L550 88.7563" stroke="#DEDEFD" stroke-width="6" stroke-miterlimit="10"/>
<path d="M1.59094 36.5228L33.8377 56.2335L66.0845 36.5228L98.3313 56.2335L130.578 36.5228L162.825 56.2335L195.072 36.5228L227.319 56.2335L259.565 36.5228L291.812 56.2335L324.059 36.5228L356.306 56.2335L388.553 36.5228L420.799 56.2335L453.046 36.5228L485.293 56.2335L517.753 36.5228L550 56.2335" stroke="#DEDEFD" stroke-width="6" stroke-miterlimit="10"/>
<path d="M1.59094 4L33.8377 23.7108L66.0845 4L98.3313 23.7108L130.578 4L162.825 23.7108L195.072 4L227.319 23.7108L259.565 4L291.812 23.7108L324.059 4L356.306 23.7108L388.553 4L420.799 23.7108L453.046 4L485.293 23.7108L517.753 4L550 23.7108" stroke="#DEDEFD" stroke-width="6" stroke-miterlimit="10"/>
</svg>
