<svg width="70" height="70" viewBox="0 0 70 70" fill="none" xmlns="http://www.w3.org/2000/svg">
<circle cx="35" cy="35" r="35" fill="#FFDCDC"/>
<path d="M19.235 37.895C19.945 38.115 20.525 38.33 20.975 38.54C21.425 38.75 21.805 39.065 22.115 39.485C22.435 39.895 22.595 40.435 22.595 41.105C22.595 41.645 22.455 42.145 22.175 42.605C21.895 43.055 21.475 43.42 20.915 43.7C20.355 43.97 19.675 44.105 18.875 44.105H18.86V45.305H18.29V44.075C17.25 43.985 16.4 43.665 15.74 43.115C15.09 42.555 14.73 41.83 14.66 40.94H16.91C16.95 41.3 17.09 41.62 17.33 41.9C17.57 42.17 17.89 42.345 18.29 42.425V39.485L17.99 39.395C17.27 39.185 16.685 38.98 16.235 38.78C15.795 38.57 15.415 38.26 15.095 37.85C14.785 37.43 14.63 36.88 14.63 36.2C14.63 35.61 14.785 35.095 15.095 34.655C15.415 34.215 15.85 33.875 16.4 33.635C16.96 33.395 17.59 33.27 18.29 33.26V32H18.86V33.275C19.9 33.345 20.725 33.65 21.335 34.19C21.955 34.72 22.305 35.4 22.385 36.23H20.105C20.055 35.9 19.92 35.62 19.7 35.39C19.49 35.15 19.21 34.995 18.86 34.925V37.775L19.235 37.895ZM16.895 36.11C16.895 36.47 17.015 36.765 17.255 36.995C17.495 37.215 17.84 37.41 18.29 37.58V34.88C17.85 34.9 17.505 35.015 17.255 35.225C17.015 35.435 16.895 35.73 16.895 36.11ZM18.86 42.485C19.32 42.475 19.68 42.35 19.94 42.11C20.2 41.86 20.33 41.54 20.33 41.15C20.33 40.78 20.2 40.485 19.94 40.265C19.69 40.035 19.33 39.84 18.86 39.68V42.485ZM36.9992 29.1H28.6242V33.55C29.0076 33.1 29.5326 32.7417 30.1992 32.475C30.8826 32.1917 31.6326 32.05 32.4492 32.05C33.6659 32.05 34.6742 32.3167 35.4742 32.85C36.2909 33.3667 36.8909 34.0667 37.2742 34.95C37.6742 35.8167 37.8742 36.7833 37.8742 37.85C37.8742 39.7333 37.3409 41.2417 36.2742 42.375C35.2242 43.5083 33.7159 44.075 31.7492 44.075C30.4659 44.075 29.3492 43.85 28.3992 43.4C27.4492 42.9333 26.7076 42.2917 26.1742 41.475C25.6409 40.6417 25.3492 39.675 25.2992 38.575H28.7242C28.8576 39.325 29.1659 39.925 29.6492 40.375C30.1326 40.8083 30.7742 41.025 31.5742 41.025C32.5409 41.025 33.2576 40.7333 33.7242 40.15C34.2076 39.55 34.4492 38.7583 34.4492 37.775C34.4492 36.8417 34.1992 36.1167 33.6992 35.6C33.1992 35.0833 32.4909 34.825 31.5742 34.825C30.9076 34.825 30.3409 34.975 29.8742 35.275C29.4076 35.5583 29.0659 35.9417 28.8492 36.425H25.4242V26H36.9992V29.1ZM52.8195 29.1H44.4445V33.55C44.8279 33.1 45.3529 32.7417 46.0195 32.475C46.7029 32.1917 47.4529 32.05 48.2695 32.05C49.4862 32.05 50.4945 32.3167 51.2945 32.85C52.1112 33.3667 52.7112 34.0667 53.0945 34.95C53.4945 35.8167 53.6945 36.7833 53.6945 37.85C53.6945 39.7333 53.1612 41.2417 52.0945 42.375C51.0445 43.5083 49.5362 44.075 47.5695 44.075C46.2862 44.075 45.1695 43.85 44.2195 43.4C43.2695 42.9333 42.5279 42.2917 41.9945 41.475C41.4612 40.6417 41.1695 39.675 41.1195 38.575H44.5445C44.6779 39.325 44.9862 39.925 45.4695 40.375C45.9529 40.8083 46.5945 41.025 47.3945 41.025C48.3612 41.025 49.0779 40.7333 49.5445 40.15C50.0279 39.55 50.2695 38.7583 50.2695 37.775C50.2695 36.8417 50.0195 36.1167 49.5195 35.6C49.0195 35.0833 48.3112 34.825 47.3945 34.825C46.7279 34.825 46.1612 34.975 45.6945 35.275C45.2279 35.5583 44.8862 35.9417 44.6695 36.425H41.2445V26H52.8195V29.1Z" fill="#DA2424"/>
</svg>
