<svg width="48" height="69" viewBox="0 0 48 69" fill="none" xmlns="http://www.w3.org/2000/svg">
<path d="M23.6667 0C10.6171 0 0 10.1736 0 22.678C0 26.4319 0.979438 30.1538 2.84138 33.4551L22.3725 67.3032C22.6325 67.7544 23.1279 68.034 23.6667 68.034C24.2054 68.034 24.7009 67.7544 24.9609 67.3032L44.4992 33.4439C46.3539 30.1538 47.3334 26.4317 47.3334 22.6779C47.3334 10.1736 36.7162 0 23.6667 0ZM23.6667 34.017C17.1419 34.017 11.8334 28.9303 11.8334 22.678C11.8334 16.4258 17.1419 11.3391 23.6667 11.3391C30.1915 11.3391 35.5 16.4258 35.5 22.678C35.5 28.9303 30.1915 34.017 23.6667 34.017Z" fill="#FC9A37"/>
</svg>
