<svg width="77" height="77" viewBox="0 0 77 77" fill="none" xmlns="http://www.w3.org/2000/svg">
<circle cx="38.5" cy="38.5" r="38.5" fill="#EDF8FF"/>
<path d="M46.1882 56C40.0525 56 33.5003 53.7454 28.3773 48.6226C23.2629 43.5081 21 36.9603 21 30.8118C21 25.393 25.384 21 30.8118 21C31.2311 21 31.6081 21.2553 31.7639 21.6446L36.1571 32.6277C36.3675 33.1535 36.1117 33.7502 35.586 33.9605L30.76 35.8909C31.1014 41.4429 35.558 45.8992 41.1091 46.2401L43.0395 41.4142C43.2494 40.8892 43.8459 40.6325 44.3724 40.8429L55.3554 45.2361C55.7447 45.3919 56 45.7689 56 46.1882C56 51.607 51.616 56 46.1882 56Z" fill="#62CAFE"/>
</svg>
