<svg width="158" height="19" viewBox="0 0 158 19" fill="none" xmlns="http://www.w3.org/2000/svg">
<path d="M15.1035 18.5269L9.71658 15.156L4.3296 18.5269C4.13391 18.6509 3.88146 18.6414 3.69302 18.5046C3.5051 18.3684 3.4189 18.1316 3.47561 17.9064L5.01679 11.741L0.203585 7.66014C0.0256505 7.51113 -0.0438459 7.26871 0.0278899 7.048C0.0996256 6.82672 0.298664 6.67159 0.529964 6.65546L6.81212 6.21677L9.18839 0.322754C9.36298 -0.107585 10.0702 -0.107585 10.2448 0.322754L12.621 6.21677L18.9032 6.65546C19.1345 6.67159 19.3335 6.82672 19.4053 7.048C19.477 7.26871 19.4075 7.51113 19.2296 7.66014L14.4163 11.7411L15.9575 17.9065C16.0142 18.1317 15.9281 18.3685 15.7401 18.5047C15.5478 18.6444 15.2961 18.6475 15.1035 18.5269Z" fill="#FC9A37"/>
<path d="M49.7453 18.5269L44.3583 15.156L38.9713 18.5269C38.7756 18.6509 38.5232 18.6414 38.3347 18.5046C38.1468 18.3684 38.0606 18.1316 38.1173 17.9064L39.6585 11.741L34.8453 7.66014C34.6674 7.51113 34.5979 7.26871 34.6696 7.048C34.7413 6.82672 34.9404 6.67159 35.1717 6.65546L41.4538 6.21677L43.8301 0.322754C44.0047 -0.107585 44.7119 -0.107585 44.8865 0.322754L47.2628 6.21677L53.5449 6.65546C53.7762 6.67159 53.9753 6.82672 54.047 7.048C54.1187 7.26871 54.0492 7.51113 53.8713 7.66014L49.0581 11.7411L50.5992 17.9065C50.6559 18.1317 50.5698 18.3685 50.3818 18.5047C50.1895 18.6444 49.9378 18.6475 49.7453 18.5269Z" fill="#FC9A37"/>
<path d="M84.387 18.5269L79 15.156L73.6131 18.5269C73.4174 18.6509 73.1649 18.6414 72.9765 18.5046C72.7885 18.3684 72.7023 18.1316 72.7591 17.9064L74.3002 11.741L69.487 7.66014C69.3091 7.51113 69.2396 7.26871 69.3113 7.048C69.3831 6.82672 69.5821 6.67159 69.8134 6.65546L76.0956 6.21677L78.4718 0.322754C78.6464 -0.107585 79.3536 -0.107585 79.5282 0.322754L81.9045 6.21677L88.1866 6.65546C88.4179 6.67159 88.617 6.82672 88.6887 7.048C88.7604 7.26871 88.691 7.51113 88.513 7.66014L83.6998 11.7411L85.241 17.9065C85.2977 18.1317 85.2115 18.3685 85.0235 18.5047C84.8312 18.6444 84.5795 18.6475 84.387 18.5269Z" fill="#FC9A37"/>
<path d="M119.029 18.5269L113.642 15.156L108.255 18.5269C108.059 18.6509 107.807 18.6414 107.618 18.5046C107.43 18.3684 107.344 18.1316 107.401 17.9064L108.942 11.741L104.129 7.66014C103.951 7.51113 103.881 7.26871 103.953 7.048C104.025 6.82672 104.224 6.67159 104.455 6.65546L110.737 6.21677L113.113 0.322754C113.288 -0.107585 113.995 -0.107585 114.17 0.322754L116.546 6.21677L122.828 6.65546C123.06 6.67159 123.259 6.82672 123.33 7.048C123.402 7.26871 123.333 7.51113 123.155 7.66014L118.341 11.7411L119.883 17.9065C119.939 18.1317 119.853 18.3685 119.665 18.5047C119.473 18.6444 119.221 18.6475 119.029 18.5269Z" fill="#FC9A37"/>
<path d="M153.67 18.5269L148.283 15.156L142.896 18.5269C142.701 18.6509 142.448 18.6414 142.26 18.5046C142.072 18.3684 141.986 18.1316 142.042 17.9064L143.584 11.741L138.77 7.66014C138.592 7.51113 138.523 7.26871 138.595 7.048C138.666 6.82672 138.865 6.67159 139.097 6.65546L145.379 6.21677L147.755 0.322754C147.93 -0.107585 148.637 -0.107585 148.812 0.322754L151.188 6.21677L157.47 6.65546C157.701 6.67159 157.9 6.82672 157.972 7.048C158.044 7.26871 157.974 7.51113 157.796 7.66014L152.983 11.7411L154.524 17.9065C154.581 18.1317 154.495 18.3685 154.307 18.5047C154.115 18.6444 153.863 18.6475 153.67 18.5269Z" fill="#FC9A37"/>
</svg>
